nColumns=19
nRows=52
DataType=double
version=3
OpenSimVersion=4.1
endheader
time	ground_force_calcn_r_vx	ground_force_calcn_r_vy	ground_force_calcn_r_vz	ground_force_calcn_r_px	ground_force_calcn_r_py	ground_force_calcn_r_pz	ground_force_calcn_r_mx	ground_force_calcn_r_my	ground_force_calcn_r_mz	ground_force_calcn_l_vx	ground_force_calcn_l_vy	ground_force_calcn_l_vz	ground_force_calcn_l_px	ground_force_calcn_l_py	ground_force_calcn_l_pz	ground_force_calcn_l_mx	ground_force_calcn_l_my	ground_force_calcn_l_mz
3.25	-9.57088	315.785	-25.1938	-0.278553	0	-0.471363	0.206742	-6.82132	0.544216	15.8964	303.288	17.9919	-0.254561	0	-0.812954	0.142867	2.72577	0.1617
3.26	-9.94565	318.223	-24.3509	-0.277558	0	-0.471458	0.212935	-6.8131	0.521348	16.0325	308.63	17.9079	-0.254607	0	-0.812879	0.142199	2.73738	0.158833
3.27	-10.2685	321.309	-23.5478	-0.276567	0	-0.471552	0.217718	-6.81254	0.499271	16.1795	314.594	17.9286	-0.254662	0	-0.812852	0.142267	2.76625	0.157647
3.28	-10.547	325.078	-22.7968	-0.275595	0	-0.471646	0.221276	-6.82012	0.478275	16.337	321.148	18.0486	-0.254718	0	-0.812867	0.1431	2.81301	0.158092
3.29	-10.7946	329.515	-22.1016	-0.274654	0	-0.471741	0.223922	-6.83542	0.458473	16.4848	328.214	18.2591	-0.254769	0	-0.812917	0.144545	2.87791	0.160103
3.3	-11.0258	334.56	-21.461	-0.273755	0	-0.471839	0.226002	-6.85766	0.439897	16.5873	335.704	18.5458	-0.254801	0	-0.812998	0.146284	2.96059	0.163557
3.31	-11.2498	340.125	-20.8724	-0.27291	0	-0.471941	0.227758	-6.88602	0.422573	16.6077	343.544	18.8896	-0.254803	0	-0.813097	0.147932	3.0601	0.168258
3.32	-11.4674	346.103	-20.335	-0.272127	0	-0.47205	0.22928	-6.92	0.406579	16.5226	351.694	19.2672	-0.254775	0	-0.813206	0.149154	3.17483	0.17393
3.33	-11.6712	352.387	-19.8511	-0.271413	0	-0.472167	0.230504	-6.95957	0.392055	16.3334	360.153	19.6516	-0.254725	0	-0.81331	0.149775	3.30257	0.180203
3.34	-11.8479	358.88	-19.425	-0.270773	0	-0.472289	0.231263	-7.00508	0.379163	16.0685	368.951	20.0137	-0.254669	0	-0.813398	0.149836	3.44039	0.186624
3.35	-11.9815	365.505	-19.0618	-0.270209	0	-0.472415	0.231334	-7.05705	0.368038	15.7785	378.134	20.3266	-0.254626	0	-0.813458	0.149581	3.58473	0.192697
3.36	-12.054	372.195	-18.7644	-0.269721	0	-0.472544	0.230444	-7.1155	0.358731	15.5243	387.755	20.5708	-0.254614	0	-0.813479	0.149393	3.73143	0.197956
3.37	-12.0455	378.875	-18.5296	-0.269306	0	-0.472675	0.228254	-7.17944	0.351124	15.3618	397.844	20.7376	-0.254646	0	-0.813459	0.149662	3.87597	0.202035
3.38	-11.9353	385.464	-18.3437	-0.268965	0	-0.472812	0.224382	-7.24665	0.344858	15.3255	408.381	20.8299	-0.254724	0	-0.813396	0.150618	4.01356	0.204715
3.39	-11.709	391.887	-18.1836	-0.268697	0	-0.472959	0.218532	-7.31402	0.339372	15.4177	419.276	20.8589	-0.254841	0	-0.813296	0.152209	4.13922	0.205926
3.4	-11.3657	398.085	-18.0221	-0.268498	0	-0.473121	0.210652	-7.37813	0.334022	15.6094	430.369	20.839	-0.25498	0	-0.813166	0.154081	4.2482	0.205703
3.41	-10.922	404.012	-17.8321	-0.268366	0	-0.473307	0.201019	-7.43583	0.3282	15.8531	441.473	20.7822	-0.255122	0	-0.81301	0.155719	4.33641	0.204135
3.42	-10.4107	409.622	-17.5908	-0.268294	0	-0.473519	0.190228	-7.48471	0.321423	16.1018	452.405	20.6952	-0.255251	0	-0.812834	0.15663	4.40077	0.201312
3.43	-9.87504	414.854	-17.2804	-0.268276	0	-0.473761	0.179075	-7.523	0.313365	16.3214	463.022	20.5783	-0.255355	0	-0.812643	0.156487	4.4394	0.197302
3.44	-9.35799	419.645	-16.889	-0.268303	0	-0.474037	0.168351	-7.54943	0.303833	16.4955	473.225	20.4268	-0.25543	0	-0.812436	0.155173	4.45163	0.192155
3.45	-8.89013	423.942	-16.406	-0.268372	0	-0.474347	0.158605	-7.56334	0.292691	16.6246	482.951	20.2335	-0.255477	0	-0.812214	0.152761	4.43775	0.185922
3.46	-8.48408	427.722	-15.8233	-0.268477	0	-0.474692	0.150051	-7.56474	0.279853	16.7228	492.158	19.9921	-0.255497	0	-0.811976	0.149461	4.39869	0.178681
3.47	-8.13729	430.987	-15.1368	-0.268617	0	-0.47507	0.142625	-7.55405	0.265308	16.8122	500.819	19.6988	-0.255496	0	-0.811724	0.145548	4.33573	0.170538
3.48	-7.83709	433.749	-14.347	-0.268792	0	-0.47548	0.136085	-7.5317	0.249124	16.9133	508.912	19.3542	-0.255478	0	-0.811461	0.141258	4.25038	0.161644
3.49	-7.56529	436.018	-13.4612	-0.269002	0	-0.475916	0.130096	-7.49797	0.231485	17.0343	516.404	18.9652	-0.255444	0	-0.811188	0.136703	4.14423	0.152199
3.5	-7.30106	437.791	-12.4909	-0.269246	0	-0.476376	0.124286	-7.4525	0.212632	17.1626	523.239	18.544	-0.255389	0	-0.81091	0.131821	4.01885	0.142431
3.51	-7.02476	439.048	-11.4497	-0.269525	0	-0.476854	0.118307	-7.39418	0.192828	17.2652	529.335	18.1056	-0.255307	0	-0.810632	0.126427	3.87613	0.132581
3.52	-6.72234	439.755	-10.3514	-0.269838	0	-0.477345	0.111919	-7.3214	0.172339	17.3002	534.6	17.6645	-0.255189	0	-0.810362	0.120337	3.71856	0.12287
3.53	-6.39009	439.868	-9.21023	-0.270183	0	-0.477846	0.105071	-7.23268	0.151442	17.2292	538.95	17.2313	-0.255027	0	-0.810102	0.113465	3.54932	0.113479
3.54	-6.03637	439.366	-8.04188	-0.270555	0	-0.478353	0.0979263	-7.12771	0.130461	17.0256	542.326	16.811	-0.25482	0	-0.809855	0.105868	3.3723	0.104534
3.55	-5.67871	438.269	-6.8665	-0.27095	0	-0.478859	0.0908023	-7.0079	0.109795	16.68	544.703	16.402	-0.254566	0	-0.809622	0.0977374	3.19171	0.0961081
3.56	-5.34176	436.644	-5.71012	-0.271356	0	-0.479356	0.0841227	-6.87632	0.0899238	16.1986	546.089	15.9972	-0.25427	0	-0.809404	0.0893346	3.01166	0.088224
3.57	-5.05377	434.591	-4.60266	-0.27176	0	-0.479835	0.0783471	-6.73734	0.0713537	15.5976	546.525	15.5861	-0.253938	0	-0.809196	0.0809389	2.83603	0.0808796
3.58	-4.84048	432.23	-3.57324	-0.272154	0	-0.480287	0.0738665	-6.59591	0.0545282	14.9012	546.09	15.157	-0.25358	0	-0.808997	0.0728107	2.66832	0.0740607
3.59	-4.71992	429.681	-2.64616	-0.272523	0	-0.480701	0.0709281	-6.45697	0.0397648	14.1391	544.884	14.6974	-0.253207	0	-0.808802	0.065177	2.51176	0.0677509
3.6	-4.70088	427.057	-1.83951	-0.272859	0	-0.481069	0.0696217	-6.32487	0.0272438	13.3406	543.026	14.196	-0.252828	0	-0.80861	0.0582058	2.36925	0.0619377
3.61	-4.78466	424.463	-1.16533	-0.273153	0	-0.481387	0.0699222	-6.20303	0.0170299	12.5302	540.635	13.6442	-0.252455	0	-0.808414	0.0519892	2.24315	0.0566113
3.62	-4.96847	421.993	-0.630891	-0.273403	0	-0.481649	0.0717485	-6.0939	0.00911056	11.7262	537.824	13.0374	-0.252099	0	-0.808215	0.0465529	2.13515	0.0517583
3.63	-5.24636	419.73	-0.239253	-0.273604	0	-0.481852	0.0749837	-5.999	0.00341953	10.9434	534.687	12.375	-0.251768	0	-0.80801	0.0418772	2.04609	0.0473556
3.64	-5.60845	417.735	0.0116188	-0.273756	0	-0.481995	0.0794662	-5.9189	-0.000164628	10.1955	531.3	11.6609	-0.251473	0	-0.807797	0.0379173	1.97591	0.0433669
3.65	-6.04015	416.048	0.129073	-0.273861	0	-0.482081	0.0849799	-5.85345	-0.00181595	9.4974	527.725	10.9022	-0.251219	0	-0.807578	0.0346224	1.92381	0.0397436
3.66	-6.52251	414.676	0.123983	-0.273925	0	-0.482114	0.0912593	-5.80192	-0.0017347	8.8642	524.014	10.1097	-0.251015	0	-0.807352	0.0319426	1.88831	0.036431
3.67	-7.0341	413.607	0.00891036	-0.273959	0	-0.482099	0.0980147	-5.76329	-0.000124159	8.31006	520.21	9.29739	-0.250864	0	-0.80712	0.0298303	1.86738	0.0333745
3.68	-7.55366	412.808	-0.202334	-0.273968	0	-0.482048	0.104968	-5.73649	0.00281168	7.84724	516.351	8.48213	-0.250771	0	-0.806883	0.0282463	1.85862	0.0305317
3.69	-8.06182	412.238	-0.495908	-0.273965	0	-0.481965	0.111876	-5.72072	0.00688181	7.4852	512.47	7.68353	-0.250739	0	-0.806644	0.0271591	1.85943	0.0278787
3.7	-8.54204	411.853	-0.860204	-0.273959	0	-0.481859	0.118543	-5.71551	0.0119375	7.22924	508.596	6.92301	-0.250768	0	-0.806404	0.026541	1.86723	0.0254167
3.71	-8.98265	411.613	-1.28807	-0.273955	0	-0.481735	0.124847	-5.72089	0.0179026	7.08036	504.759	6.22221	-0.25086	0	-0.80617	0.0263678	1.87976	0.023172
3.72	-9.37819	411.493	-1.77749	-0.273956	0	-0.481593	0.130754	-5.7372	0.0247824	7.03633	500.983	5.60085	-0.251011	0	-0.80594	0.0266199	1.89532	0.0211892
3.73	-9.72734	411.477	-2.33126	-0.273967	0	-0.481436	0.136285	-5.76499	0.032662	7.09264	497.287	5.07591	-0.251217	0	-0.805721	0.0272828	1.91288	0.0195251
3.74	-10.0294	411.554	-2.957	-0.273985	0	-0.48126	0.141457	-5.80468	0.0417064	7.24341	493.68	4.66145	-0.251477	0	-0.805516	0.0283449	1.93187	0.0182412
3.75	-10.2819	411.712	-3.66655	-0.274015	0	-0.481064	0.146255	-5.8564	0.0521549	7.48311	490.16	4.36865	-0.251785	0	-0.805327	0.0297997	1.95195	0.0173971
3.76	-10.4796	411.932	-4.47465	-0.274054	0	-0.480846	0.150601	-5.91986	0.0643051	7.80765	486.713	4.2065	-0.252138	0	-0.805158	0.0316475	1.97284	0.0170506
